<?xml version="1.0" encoding="UTF-8"?>
<!DOCTYPE svg PUBLIC "-//W3C//DTD SVG 1.1//EN" "http://www.w3.org/Graphics/SVG/1.1/DTD/svg11.dtd">
<svg xmlns="http://www.w3.org/2000/svg" version="1.1" width="2118px" height="2118px" style="shape-rendering:geometricPrecision; text-rendering:geometricPrecision; image-rendering:optimizeQuality; fill-rule:evenodd; clip-rule:evenodd" xmlns:xlink="http://www.w3.org/1999/xlink">
<g><path style="opacity:1" fill="#18386f" d="M -0.5,-0.5 C 705.5,-0.5 1411.5,-0.5 2117.5,-0.5C 2117.5,705.5 2117.5,1411.5 2117.5,2117.5C 1411.5,2117.5 705.5,2117.5 -0.5,2117.5C -0.5,1411.5 -0.5,705.5 -0.5,-0.5 Z"/></g>
<g><path style="opacity:1" fill="#fcf17b" d="M 713.5,631.5 C 784.241,628.886 854.241,634.719 923.5,649C 941.649,653.661 959.649,658.828 977.5,664.5C 970.332,731.839 956.832,797.839 937,862.5C 932.523,877.1 927.356,891.434 921.5,905.5C 897.619,910.572 873.619,910.739 849.5,906C 839.401,903.809 829.401,901.309 819.5,898.5C 821.703,857.184 822.037,815.851 820.5,774.5C 801.37,770.502 782.036,767.668 762.5,766C 736.167,765.333 709.833,765.333 683.5,766C 653.38,767.683 624.046,773.35 595.5,783C 590.833,785 586.167,787 581.5,789C 530.944,856.293 501.778,932.127 494,1016.5C 487.793,1069.5 489.793,1122.17 500,1174.5C 507.713,1211.58 522.713,1245.24 545,1275.5C 576.683,1311.92 616.849,1331.09 665.5,1333C 697.873,1333.47 730.206,1332.47 762.5,1330C 770.682,1277.14 775.682,1223.97 777.5,1170.5C 740.665,1158.87 702.998,1151.2 664.5,1147.5C 667.743,1118.53 674.743,1090.53 685.5,1063.5C 774.161,1064.8 862.827,1065.64 951.5,1066C 956.634,1070.13 961.468,1074.63 966,1079.5C 966.167,1081.33 966.333,1083.17 966.5,1085C 952.705,1191.86 938.705,1298.7 924.5,1405.5C 837.929,1438.31 748.596,1459.48 656.5,1469C 615.024,1473.11 573.691,1472.11 532.5,1466C 448.262,1449.07 386.429,1402.57 347,1326.5C 319.655,1271.81 305.322,1213.81 304,1152.5C 299.674,1024.1 333.674,907.101 406,801.5C 462.798,723.313 537.965,671.146 631.5,645C 658.609,638.204 685.942,633.704 713.5,631.5 Z"/></g>
<g><path style="opacity:1" fill="#fcf17b" d="M 1115.5,648.5 C 1236.17,651.004 1356.84,651.004 1477.5,648.5C 1479.93,676.784 1478.26,704.784 1472.5,732.5C 1442.26,744.54 1410.92,751.873 1378.5,754.5C 1364.85,834.185 1353.69,914.185 1345,994.5C 1361.09,985.54 1377.25,976.706 1393.5,968C 1465.17,896.333 1536.83,824.667 1608.5,753C 1581.16,746.165 1553.83,739.332 1526.5,732.5C 1529.46,703.868 1535.79,676.035 1545.5,649C 1602.83,649.505 1660.16,650.005 1717.5,650.5C 1767.18,650.4 1816.84,649.733 1866.5,648.5C 1868.69,676.744 1867.02,704.744 1861.5,732.5C 1833.14,743.758 1803.8,751.258 1773.5,755C 1694.46,831.705 1615.8,908.705 1537.5,986C 1570.28,1094.05 1613.11,1197.88 1666,1297.5C 1682.2,1323.54 1705.7,1338.37 1736.5,1342C 1751.83,1342.67 1767.17,1342.67 1782.5,1342C 1786.2,1340.93 1789.87,1340.76 1793.5,1341.5C 1805.73,1362.2 1810.23,1384.53 1807,1408.5C 1806.24,1415.86 1804.74,1423.03 1802.5,1430C 1751.31,1449.64 1698.31,1460.97 1643.5,1464C 1623.18,1465.23 1602.84,1465.57 1582.5,1465C 1562.64,1460.82 1545.8,1451.32 1532,1436.5C 1514.81,1415.14 1501.48,1391.47 1492,1365.5C 1457.14,1272.43 1427.64,1177.76 1403.5,1081.5C 1378.95,1090.9 1354.28,1099.9 1329.5,1108.5C 1322.5,1164.51 1315.33,1220.51 1308,1276.5C 1305.5,1300.44 1304,1324.44 1303.5,1348.5C 1333.57,1351.6 1362.57,1358.93 1390.5,1370.5C 1391.66,1374.12 1391.83,1377.79 1391,1381.5C 1389,1393.49 1387,1405.49 1385,1417.5C 1381.6,1429.87 1378.1,1442.2 1374.5,1454.5C 1253.84,1451.96 1133.17,1451.96 1012.5,1454.5C 1009.58,1426.43 1010.24,1398.43 1014.5,1370.5C 1049.09,1366.1 1082.92,1358.43 1116,1347.5C 1122.95,1319.48 1128.28,1291.14 1132,1262.5C 1149.86,1125.24 1167.19,987.908 1184,850.5C 1186.83,818.518 1189.33,786.518 1191.5,754.5C 1174.55,749.575 1157.55,744.741 1140.5,740C 1125.92,736.959 1111.26,734.459 1096.5,732.5C 1100.03,703.859 1106.36,675.859 1115.5,648.5 Z"/></g>
</svg>
